<svg viewBox="169.5 165 694 694" fill="none" xmlns="http://www.w3.org/2000/svg">
<path d="M196.4 434.751L240.5 314L380.585 685.46L502.655 659.999L840.315 573.664C832.585 609.209 818.729 680.491 809.968 701.888C801.207 723.284 780.986 733.464 771.971 735.88C694.536 756.629 516.089 801.954 424.809 826.413C333.529 850.871 303.921 810.664 284.007 754.919C258.504 683.529 217.478 554.644 195.465 486.527C190.007 469.635 190.311 451.426 196.4 434.751Z" fill="#FF9D00"/>
<path d="M390.165 611.483L289.534 357.123C281.599 337.064 292.965 314.577 313.822 309.071L617.39 228.943C643.647 222.013 670.967 235.66 681.195 260.817L793.701 537.538C801.856 557.597 790.585 580.265 769.669 585.87L488.826 661.122C448.105 672.033 405.673 650.684 390.165 611.483Z" fill="white"/>
<path d="M614.415 190.066C655.396 179.085 698.133 200.389 714.034 239.724L837.234 544.506C849.165 574.022 832.566 607.322 801.814 615.562L462.123 706.582C418.421 718.292 372.887 695.349 356.291 653.259L240.034 358.396C227.11 325.614 245.615 288.885 279.652 279.765L614.415 190.066ZM313.824 309.071C292.966 314.576 281.599 337.064 289.535 357.123L390.166 611.483C405.674 650.684 448.106 672.032 488.827 661.121L769.67 585.87C790.586 580.265 801.856 557.598 793.701 537.538L681.196 260.817C670.968 235.66 643.648 222.013 617.391 228.944L313.824 309.071Z" fill="#FF9D00"/>
<path d="M572.7 512.267C584.56 506.511 599.223 507.504 611.093 514.867C622.965 522.23 630.212 534.825 630.072 547.853C629.933 560.88 622.426 572.325 610.417 577.821C592.13 586.183 569.095 578.461 558.764 560.506C548.428 542.542 554.644 521.032 572.7 512.267Z" fill="#FF9D00"/>
<path d="M518.36 304.258L478.112 314.827C463.555 318.65 456.467 335.136 463.706 348.331L536.909 481.758C542.11 491.237 553.182 495.85 563.574 492.867L572.338 490.352C584.681 486.808 591.777 473.89 588.145 461.572L546.425 320.09C542.888 308.094 530.457 301.081 518.36 304.258Z" fill="#FF9D00"/>
</svg>
